<mxfile host="65bd71144e">
    <diagram name="Data Flow" id="qsl-yLtg4liw6EHXuBID">
        <mxGraphModel dx="847" dy="549" grid="1" gridSize="10" guides="1" tooltips="1" connect="1" arrows="1" fold="1" page="1" pageScale="1" pageWidth="1200" pageHeight="1920" background="#ffffff" math="0" shadow="0">
            <root>
                <mxCell id="PmAsDYt7ePFWswJWPdAt-0"/>
                <mxCell id="PmAsDYt7ePFWswJWPdAt-1" parent="PmAsDYt7ePFWswJWPdAt-0"/>
                <mxCell id="N5Wro9hiEPlnRRx0mENQ-124" value="&lt;font style=&quot;&quot;&gt;&lt;b&gt;Data Flow &lt;/b&gt;&lt;font style=&quot;font-size: 20px;&quot;&gt;(data Lineage)&lt;/font&gt;&lt;br style=&quot;font-size: 38px;&quot;&gt;&lt;/font&gt;" style="text;html=1;strokeColor=none;fillColor=none;align=left;verticalAlign=middle;whiteSpace=wrap;rounded=0;fontSize=38;fontFamily=Helvetica;" parent="PmAsDYt7ePFWswJWPdAt-1" vertex="1">
                    <mxGeometry x="69" y="47" width="396" height="54" as="geometry"/>
                </mxCell>
                <mxCell id="n8bJTZ1ovyGtcUzWuUE2-2" value="" style="rounded=0;whiteSpace=wrap;html=1;fillColor=none;dashed=1;" parent="PmAsDYt7ePFWswJWPdAt-1" vertex="1">
                    <mxGeometry x="390" y="280" width="200" height="500" as="geometry"/>
                </mxCell>
                <mxCell id="n8bJTZ1ovyGtcUzWuUE2-3" value="&lt;font style=&quot;font-size: 24px;&quot;&gt;Sources&lt;/font&gt;" style="rounded=1;whiteSpace=wrap;html=1;strokeColor=none;" parent="PmAsDYt7ePFWswJWPdAt-1" vertex="1">
                    <mxGeometry x="430" y="260" width="120" height="40" as="geometry"/>
                </mxCell>
                <mxCell id="D8R9sGTT4eO_Y8YIvJOX-3" style="edgeStyle=orthogonalEdgeStyle;rounded=0;orthogonalLoop=1;jettySize=auto;html=1;entryX=0;entryY=0.5;entryDx=0;entryDy=0;" parent="PmAsDYt7ePFWswJWPdAt-1" source="4ZKNdrfmacIxx5nxEuMF-0" target="hnOc7kBfibrwKYlpnwC0-0" edge="1">
                    <mxGeometry relative="1" as="geometry"/>
                </mxCell>
                <mxCell id="D8R9sGTT4eO_Y8YIvJOX-4" style="edgeStyle=orthogonalEdgeStyle;rounded=0;orthogonalLoop=1;jettySize=auto;html=1;entryX=0;entryY=0.5;entryDx=0;entryDy=0;" parent="PmAsDYt7ePFWswJWPdAt-1" source="4ZKNdrfmacIxx5nxEuMF-0" target="5szykNnx05lKGsdo6Biz-0" edge="1">
                    <mxGeometry relative="1" as="geometry"/>
                </mxCell>
                <mxCell id="D8R9sGTT4eO_Y8YIvJOX-5" style="edgeStyle=orthogonalEdgeStyle;rounded=0;orthogonalLoop=1;jettySize=auto;html=1;entryX=0;entryY=0.5;entryDx=0;entryDy=0;" parent="PmAsDYt7ePFWswJWPdAt-1" source="4ZKNdrfmacIxx5nxEuMF-0" target="hnOc7kBfibrwKYlpnwC0-1" edge="1">
                    <mxGeometry relative="1" as="geometry"/>
                </mxCell>
                <mxCell id="4ZKNdrfmacIxx5nxEuMF-0" value="&lt;font style=&quot;font-size: 20px;&quot;&gt;&lt;b&gt;CRM&lt;/b&gt;&lt;/font&gt;" style="image;aspect=fixed;html=1;points=[];align=center;fontSize=12;image=img/lib/azure2/general/Folder_Blank.svg;" parent="PmAsDYt7ePFWswJWPdAt-1" vertex="1">
                    <mxGeometry x="456" y="432" width="69" height="56.00000000000001" as="geometry"/>
                </mxCell>
                <mxCell id="-fXMBUoAsH7tqhl6yJGk-2" style="edgeStyle=orthogonalEdgeStyle;rounded=0;orthogonalLoop=1;jettySize=auto;html=1;entryX=0;entryY=0.5;entryDx=0;entryDy=0;" parent="PmAsDYt7ePFWswJWPdAt-1" source="4ZKNdrfmacIxx5nxEuMF-4" target="D8R9sGTT4eO_Y8YIvJOX-8" edge="1">
                    <mxGeometry relative="1" as="geometry"/>
                </mxCell>
                <mxCell id="-fXMBUoAsH7tqhl6yJGk-3" style="edgeStyle=orthogonalEdgeStyle;rounded=0;orthogonalLoop=1;jettySize=auto;html=1;entryX=0;entryY=0.5;entryDx=0;entryDy=0;" parent="PmAsDYt7ePFWswJWPdAt-1" source="4ZKNdrfmacIxx5nxEuMF-4" target="D8R9sGTT4eO_Y8YIvJOX-6" edge="1">
                    <mxGeometry relative="1" as="geometry"/>
                </mxCell>
                <mxCell id="-fXMBUoAsH7tqhl6yJGk-4" style="edgeStyle=orthogonalEdgeStyle;rounded=0;orthogonalLoop=1;jettySize=auto;html=1;" parent="PmAsDYt7ePFWswJWPdAt-1" source="4ZKNdrfmacIxx5nxEuMF-4" target="D8R9sGTT4eO_Y8YIvJOX-7" edge="1">
                    <mxGeometry relative="1" as="geometry"/>
                </mxCell>
                <mxCell id="4ZKNdrfmacIxx5nxEuMF-4" value="&lt;font style=&quot;font-size: 20px;&quot;&gt;&lt;b&gt;ERP&lt;/b&gt;&lt;/font&gt;" style="image;aspect=fixed;html=1;points=[];align=center;fontSize=12;image=img/lib/azure2/general/Folder_Blank.svg;" parent="PmAsDYt7ePFWswJWPdAt-1" vertex="1">
                    <mxGeometry x="455.5" y="626" width="69" height="56.00000000000001" as="geometry"/>
                </mxCell>
                <mxCell id="4ZKNdrfmacIxx5nxEuMF-5" value="" style="rounded=1;whiteSpace=wrap;html=1;fillColor=#ffe6cc;strokeColor=#d79b00;fillStyle=hatch;arcSize=5;" parent="PmAsDYt7ePFWswJWPdAt-1" vertex="1">
                    <mxGeometry x="673" y="340" width="220" height="440" as="geometry"/>
                </mxCell>
                <mxCell id="4ZKNdrfmacIxx5nxEuMF-6" value="Bronze Layer" style="rounded=1;whiteSpace=wrap;html=1;fillColor=#ffe6cc;strokeColor=#d79b00;fontSize=20;fontStyle=1" parent="PmAsDYt7ePFWswJWPdAt-1" vertex="1">
                    <mxGeometry x="673" y="280" width="220" height="50" as="geometry"/>
                </mxCell>
                <mxCell id="-fXMBUoAsH7tqhl6yJGk-13" style="edgeStyle=orthogonalEdgeStyle;rounded=0;orthogonalLoop=1;jettySize=auto;html=1;entryX=0;entryY=0.5;entryDx=0;entryDy=0;" parent="PmAsDYt7ePFWswJWPdAt-1" source="5szykNnx05lKGsdo6Biz-0" target="-fXMBUoAsH7tqhl6yJGk-7" edge="1">
                    <mxGeometry relative="1" as="geometry"/>
                </mxCell>
                <mxCell id="5szykNnx05lKGsdo6Biz-0" value="crm_sales_details" style="rounded=1;whiteSpace=wrap;html=1;fillColor=#ffe6cc;strokeColor=#d79b00;fontSize=16;fontStyle=0" parent="PmAsDYt7ePFWswJWPdAt-1" vertex="1">
                    <mxGeometry x="694" y="386" width="180" height="40" as="geometry"/>
                </mxCell>
                <mxCell id="-fXMBUoAsH7tqhl6yJGk-14" style="edgeStyle=orthogonalEdgeStyle;rounded=0;orthogonalLoop=1;jettySize=auto;html=1;" parent="PmAsDYt7ePFWswJWPdAt-1" source="hnOc7kBfibrwKYlpnwC0-0" target="-fXMBUoAsH7tqhl6yJGk-8" edge="1">
                    <mxGeometry relative="1" as="geometry"/>
                </mxCell>
                <mxCell id="hnOc7kBfibrwKYlpnwC0-0" value="crm_cust_info" style="rounded=1;whiteSpace=wrap;html=1;fillColor=#ffe6cc;strokeColor=#d79b00;fontSize=16;fontStyle=0" parent="PmAsDYt7ePFWswJWPdAt-1" vertex="1">
                    <mxGeometry x="694" y="440" width="180" height="40" as="geometry"/>
                </mxCell>
                <mxCell id="-fXMBUoAsH7tqhl6yJGk-15" style="edgeStyle=orthogonalEdgeStyle;rounded=0;orthogonalLoop=1;jettySize=auto;html=1;entryX=0;entryY=0.5;entryDx=0;entryDy=0;" parent="PmAsDYt7ePFWswJWPdAt-1" source="hnOc7kBfibrwKYlpnwC0-1" target="-fXMBUoAsH7tqhl6yJGk-9" edge="1">
                    <mxGeometry relative="1" as="geometry"/>
                </mxCell>
                <mxCell id="hnOc7kBfibrwKYlpnwC0-1" value="crm_prd_info" style="rounded=1;whiteSpace=wrap;html=1;fillColor=#ffe6cc;strokeColor=#d79b00;fontSize=16;fontStyle=0" parent="PmAsDYt7ePFWswJWPdAt-1" vertex="1">
                    <mxGeometry x="694" y="500" width="180" height="40" as="geometry"/>
                </mxCell>
                <mxCell id="-fXMBUoAsH7tqhl6yJGk-16" style="edgeStyle=orthogonalEdgeStyle;rounded=0;orthogonalLoop=1;jettySize=auto;html=1;entryX=0;entryY=0.5;entryDx=0;entryDy=0;" parent="PmAsDYt7ePFWswJWPdAt-1" source="D8R9sGTT4eO_Y8YIvJOX-6" target="-fXMBUoAsH7tqhl6yJGk-10" edge="1">
                    <mxGeometry relative="1" as="geometry"/>
                </mxCell>
                <mxCell id="D8R9sGTT4eO_Y8YIvJOX-6" value="erp_cust_az12" style="rounded=1;whiteSpace=wrap;html=1;fillColor=#ffe6cc;strokeColor=#d79b00;fontSize=16;fontStyle=0" parent="PmAsDYt7ePFWswJWPdAt-1" vertex="1">
                    <mxGeometry x="694" y="580" width="180" height="40" as="geometry"/>
                </mxCell>
                <mxCell id="-fXMBUoAsH7tqhl6yJGk-17" style="edgeStyle=orthogonalEdgeStyle;rounded=0;orthogonalLoop=1;jettySize=auto;html=1;entryX=0;entryY=0.5;entryDx=0;entryDy=0;" parent="PmAsDYt7ePFWswJWPdAt-1" source="D8R9sGTT4eO_Y8YIvJOX-7" target="-fXMBUoAsH7tqhl6yJGk-11" edge="1">
                    <mxGeometry relative="1" as="geometry"/>
                </mxCell>
                <mxCell id="D8R9sGTT4eO_Y8YIvJOX-7" value="erp_loc_a101" style="rounded=1;whiteSpace=wrap;html=1;fillColor=#ffe6cc;strokeColor=#d79b00;fontSize=16;fontStyle=0" parent="PmAsDYt7ePFWswJWPdAt-1" vertex="1">
                    <mxGeometry x="694" y="634" width="180" height="40" as="geometry"/>
                </mxCell>
                <mxCell id="-fXMBUoAsH7tqhl6yJGk-18" style="edgeStyle=orthogonalEdgeStyle;rounded=0;orthogonalLoop=1;jettySize=auto;html=1;entryX=0;entryY=0.5;entryDx=0;entryDy=0;" parent="PmAsDYt7ePFWswJWPdAt-1" source="D8R9sGTT4eO_Y8YIvJOX-8" target="-fXMBUoAsH7tqhl6yJGk-12" edge="1">
                    <mxGeometry relative="1" as="geometry"/>
                </mxCell>
                <mxCell id="D8R9sGTT4eO_Y8YIvJOX-8" value="erp_px_cat_g1v2" style="rounded=1;whiteSpace=wrap;html=1;fillColor=#ffe6cc;strokeColor=#d79b00;fontSize=16;fontStyle=0" parent="PmAsDYt7ePFWswJWPdAt-1" vertex="1">
                    <mxGeometry x="694" y="694" width="180" height="40" as="geometry"/>
                </mxCell>
                <mxCell id="-fXMBUoAsH7tqhl6yJGk-5" value="" style="rounded=1;whiteSpace=wrap;html=1;fillColor=#f5f5f5;strokeColor=#666666;fillStyle=hatch;arcSize=5;fontColor=#333333;" parent="PmAsDYt7ePFWswJWPdAt-1" vertex="1">
                    <mxGeometry x="973" y="340" width="220" height="440" as="geometry"/>
                </mxCell>
                <mxCell id="-fXMBUoAsH7tqhl6yJGk-6" value="Silver Layer" style="rounded=1;whiteSpace=wrap;html=1;fillColor=#f5f5f5;strokeColor=#666666;fontSize=20;fontStyle=1;fontColor=#333333;" parent="PmAsDYt7ePFWswJWPdAt-1" vertex="1">
                    <mxGeometry x="973" y="280" width="220" height="50" as="geometry"/>
                </mxCell>
                <mxCell id="-fXMBUoAsH7tqhl6yJGk-7" value="crm_sales_details" style="rounded=1;whiteSpace=wrap;html=1;fillColor=#f5f5f5;strokeColor=#666666;fontSize=16;fontStyle=0;fontColor=#333333;" parent="PmAsDYt7ePFWswJWPdAt-1" vertex="1">
                    <mxGeometry x="994" y="386" width="180" height="40" as="geometry"/>
                </mxCell>
                <mxCell id="-fXMBUoAsH7tqhl6yJGk-8" value="crm_cust_info" style="rounded=1;whiteSpace=wrap;html=1;fillColor=#f5f5f5;strokeColor=#666666;fontSize=16;fontStyle=0;fontColor=#333333;" parent="PmAsDYt7ePFWswJWPdAt-1" vertex="1">
                    <mxGeometry x="994" y="440" width="180" height="40" as="geometry"/>
                </mxCell>
                <mxCell id="-fXMBUoAsH7tqhl6yJGk-9" value="crm_prd_info" style="rounded=1;whiteSpace=wrap;html=1;fillColor=#f5f5f5;strokeColor=#666666;fontSize=16;fontStyle=0;fontColor=#333333;" parent="PmAsDYt7ePFWswJWPdAt-1" vertex="1">
                    <mxGeometry x="994" y="500" width="180" height="40" as="geometry"/>
                </mxCell>
                <mxCell id="-fXMBUoAsH7tqhl6yJGk-10" value="erp_cust_az12" style="rounded=1;whiteSpace=wrap;html=1;fillColor=#f5f5f5;strokeColor=#666666;fontSize=16;fontStyle=0;fontColor=#333333;" parent="PmAsDYt7ePFWswJWPdAt-1" vertex="1">
                    <mxGeometry x="994" y="580" width="180" height="40" as="geometry"/>
                </mxCell>
                <mxCell id="-fXMBUoAsH7tqhl6yJGk-11" value="erp_loc_a101" style="rounded=1;whiteSpace=wrap;html=1;fillColor=#f5f5f5;strokeColor=#666666;fontSize=16;fontStyle=0;fontColor=#333333;" parent="PmAsDYt7ePFWswJWPdAt-1" vertex="1">
                    <mxGeometry x="994" y="634" width="180" height="40" as="geometry"/>
                </mxCell>
                <mxCell id="-fXMBUoAsH7tqhl6yJGk-12" value="erp_px_cat_g1v2" style="rounded=1;whiteSpace=wrap;html=1;fillColor=#f5f5f5;strokeColor=#666666;fontSize=16;fontStyle=0;fontColor=#333333;" parent="PmAsDYt7ePFWswJWPdAt-1" vertex="1">
                    <mxGeometry x="994" y="694" width="180" height="40" as="geometry"/>
                </mxCell>
                <mxCell id="hYor6iIa-aKugMJ0ksJW-2" value="" style="image;aspect=fixed;html=1;points=[];align=center;fontSize=12;image=img/lib/azure2/general/File.svg;" parent="PmAsDYt7ePFWswJWPdAt-1" vertex="1">
                    <mxGeometry x="508.12" y="460" width="32.46" height="40" as="geometry"/>
                </mxCell>
                <mxCell id="hYor6iIa-aKugMJ0ksJW-4" value="" style="image;aspect=fixed;html=1;points=[];align=center;fontSize=12;image=img/lib/azure2/general/File.svg;" parent="PmAsDYt7ePFWswJWPdAt-1" vertex="1">
                    <mxGeometry x="508.12" y="654" width="32.46" height="40" as="geometry"/>
                </mxCell>
            </root>
        </mxGraphModel>
    </diagram>
</mxfile>